<svg xmlns="http://www.w3.org/2000/svg" width="544" height="120" viewBox="245 366 554 126"><path d="M0 0v15.05h10.519v-57.611H-1.618l-16.021 25.65Q-24.194-6.636-27.916.405q.323-9.064.324-27.916v-15.05h-10.519V15.05h12.137L-9.872-10.6Q-2.671-22.253.323-27.916 0-15.859 0 0" style="fill:#231f20;fill-opacity:1;fill-rule:nonzero;stroke:none" transform="matrix(1.33333 0 0 -1.33333 299.963 388.87)"/><path d="M252.953 324.959H242.92v9.548h10.033zm.081-47.174h-10.195v41.752h10.195z" style="fill:#231f20;fill-opacity:1;fill-rule:nonzero;stroke:none" transform="matrix(1.33333 0 0 -1.33333 0 816)"/><path d="M0 0h-11.652l-12.137 19.42-6.311-6.312V0h-10.034v57.612H-30.1V24.437l16.992 17.315H-.971L-16.75 25.974Z" style="fill:#231f20;fill-opacity:1;fill-rule:nonzero;stroke:none" transform="matrix(1.33333 0 0 -1.33333 457.844 445.62)"/><path d="m0 0 9.63 27.43h15.858v-57.612H15.051v17.559q-.002 16.183.324 28.563-1.782-6.07-4.371-13.27L-.648-30.182H-9.63L-21.36 2.67q-3.077 8.981-4.29 13.108.323-12.3.324-28.401v-17.559h-10.519V27.43h15.859l9.953-27.997q.97-2.833 4.936-15.617Q-2.51-7.203 0 0" style="fill:#231f20;fill-opacity:1;fill-rule:nonzero;stroke:none" transform="matrix(1.33333 0 0 -1.33333 526.134 405.377)"/><path d="M0 0q3.92 0 6.906 1.832 2.985 1.83 4.723 5.102 1.738 3.27 1.738 7.369 0 4.185-1.738 7.369-1.738 3.183-4.723 5.059Q3.92 28.605 0 28.606q-4.01 0-7.039-1.875t-4.768-5.059q-1.737-3.184-1.737-7.369 0-4.1 1.737-7.369 1.738-3.272 4.768-5.102Q-4.01 0 0 0m-.011-7.875q-6.248 0-11.361 2.89-5.117 2.888-8.122 7.887-3.007 4.996-3.006 11.401 0 6.403 3.006 11.401t8.082 7.888q5.076 2.888 11.401 2.889 6.247 0 11.323-2.889 5.076-2.89 8.083-7.849 3.005-4.959 3.006-11.44 0-6.405-3.045-11.401-3.046-5-8.122-7.887-5.076-2.89-11.245-2.89" style="fill:#231f20;fill-opacity:1;fill-rule:nonzero;stroke:none" transform="matrix(1.33333 0 0 -1.33333 707.089 436.414)"/><path d="M0 0q6.796 0 10.721-3.925t3.925-11.125v-27.673H4.45v25.974q0 7.929-7.849 7.929-3.884 0-6.594-2.791-2.712-2.792-2.711-7.728v-23.384h-10.195V-.971h9.872v-5.988Q-8.254 0 0 0" style="fill:#231f20;fill-opacity:1;fill-rule:nonzero;stroke:none" transform="matrix(1.33333 0 0 -1.33333 773.99 388.655)"/><path d="M0 0q0-4.937-2.994-7.566-2.994-2.63-7.768-2.629-3.398 0-5.219 1.497-1.82 1.495-1.821 4.167 0 2.67 1.74 4.086 1.74 1.415 5.786 1.901l5.502.647q3.317.404 4.774 1.7zm9.866 9.241h.005v4.434q0 12.54-17.396 12.541-17.883 0-18.773-14.241h10.034q.323 3.64 2.266 5.138 1.941 1.497 6.392 1.497 4.126 0 5.866-1.254T0 13.432q0-2.185-1.376-3.277t-4.531-1.497l-6.312-.567q-16.02-1.618-16.02-13.027 0-5.908 4.086-9.224 4.085-3.319 10.964-3.318 9.223 0 13.432 6.069.404-3.804 1.132-5.098h8.491z" style="fill:#231f20;fill-opacity:1;fill-rule:nonzero;stroke:none" transform="matrix(1.33333 0 0 -1.33333 604.547 423.61)"/><path d="M0 0q-2.549-2.064-6.271-2.064-4.694-.001-7.444 3.44-2.751 3.437-2.751 9.912 0 6.472 2.71 9.912 2.71 3.438 7.485 3.438 3.641 0 6.069-1.941 2.427-1.943 3.155-5.584h.185l.985.411 8.315 3.069q-1.471 4.961-5.358 8.212-5.18 4.328-13.351 4.329-9.386 0-14.969-5.907-5.665-5.907-5.664-15.939 0-9.954 5.664-15.86 5.744-5.988 14.969-5.988 8.09 0 13.432 4.491 5.34 4.491 6.149 12.015H3.115Q2.548 2.063 0 0" style="fill:#231f20;fill-opacity:1;fill-rule:nonzero;stroke:none" transform="matrix(1.33333 0 0 -1.33333 380.457 432.834)"/><path d="M0 0q-3.453 3.003-11.086 4.385l-5.279.813q-3.736.649-5.361 1.827-1.624 1.176-1.624 3.289 0 4.873 7.309 4.873 4.305 0 6.498-1.583 2.192-1.584 2.355-5.32h.003l9.243 3.351Q-.351 22.496-16.041 22.497q-8.284-.001-12.832-3.371-4.548-3.372-4.548-9.299 0-10.396 13.726-12.67l4.792-.813q4.629-.812 6.416-2.029 1.786-1.22 1.787-3.493 0-5.036-8.284-5.035-4.63-.001-6.782 1.624t-2.559 5.522h-9.989q.81-14.456 19.167-14.456 8.852 0 13.725 3.411t4.873 9.746Q3.451-3.006 0 0" style="fill:#231f20;fill-opacity:1;fill-rule:nonzero;stroke:none" transform="matrix(1.33333 0 0 -1.33333 669.384 418.5)"/><path d="M6.68.282q-2.755 0-4.465-1.793C1.072-2.71.504-4.335.504-6.374q0-3.069 1.687-4.863 1.697-1.803 4.489-1.805c1.482 0 2.754.404 3.808 1.207 1.06.797 1.723 1.954 1.98 3.469H10.02q-.33-1.289-1.22-1.922-.88-.644-2.12-.645-1.7.001-2.684 1.22-.974 1.207-.973 3.339-.001 2.146.973 3.352.97 1.195 2.684 1.195 1.287.002 2.261-.762.972-.773 1.16-2.215h2.426q-.258 2.439-1.91 3.762Q8.974.284 6.68.282m14.625 0q-2.884.002-4.63-1.816-1.746-1.827-1.745-4.84-.001-3.011 1.746-4.84 1.745-1.828 4.629-1.828 2.868 0 4.617 1.828 1.745 1.829 1.746 4.84 0 3.013-1.746 4.84Q24.174.284 21.305.282m-2.813-3.34q1.054 1.221 2.813 1.22 1.756.001 2.8-1.22 1.056-1.216 1.055-3.316 0-2.095-1.055-3.316-1.044-1.219-2.8-1.22-1.758.001-2.813 1.22-1.044 1.22-1.043 3.316-.001 2.1 1.043 3.316m20.613-9.703h2.333V.001h-2.696l-3.539-5.684Q33.63-8.13 32.918-9.515q.07 2.265.07 6.188V0h-2.32v-12.762h2.684l3.562 5.684q1.557 2.531 2.262 3.832-.07-3.011-.07-6.176zM49.822.282q-2.579.002-4.02-1.148-1.432-1.16-1.44-3.34h2.378c.015.937.3 1.6.856 1.98q.829.563 2.297.563 1.251.001 1.91-.469.668-.48.668-1.383-.002-.749-.574-1.136-.576-.396-2.04-.703l-1.078-.223q-4.102-.76-4.101-3.867 0-1.627 1.242-2.614 1.252-.984 3.492-.984 2.577 0 3.844 1.09 1.276 1.09 1.348 2.988H52.26q-.072-1.065-.715-1.594-.645-.527-2.098-.527-1.126 0-1.71.422-.588.411-.587 1.148 0 .774.54 1.184.536.413 1.957.703l1.113.211q2.237.447 3.222 1.348.996.89.997 2.437 0 1.876-1.372 2.895-1.371 1.02-3.785 1.02M67.014-12.76v2.168h-4.09V.001h-2.438v-10.594h-4.09v-2.168zM79.77-1.487q.034.95.398 1.488h-2.496q-.306-.503-.34-1.523l-.047-1.395q-.059-1.181-.55-1.629c-.323-.305-.82-.457-1.5-.457h-3.153V.001h-2.414v-12.762h5.79q2.143 0 3.315.985 1.171.973 1.172 2.625 0 1.103-.55 1.898-.54.787-1.582 1.149 1.006.316 1.406.984.41.659.445 1.734zm-7.688-5.414h3.223q1.005 0 1.582-.504c.38-.343.574-.835.574-1.477q0-.936-.598-1.406-.587-.48-1.64-.48h-3.14zM88.175.27q-2.453 0-3.903-1.313-1.44-1.323-1.44-3.762v-7.957h2.425v7.98q-.002 1.47.762 2.216.758.738 2.156.738 1.392 0 2.156-.738.761-.747.762-2.215v-7.98h2.426v7.956q-.001 2.461-1.43 3.774Q90.67.27 88.175.27m14.317.011q-2.755 0-4.465-1.793c-1.142-1.2-1.71-2.824-1.71-4.863q0-3.069 1.687-4.863 1.696-1.803 4.488-1.805 2.226.001 3.809 1.207 1.591 1.196 1.98 3.469h-2.449q-.33-1.289-1.219-1.922-.88-.644-2.12-.645-1.701.001-2.684 1.22-.974 1.207-.973 3.339-.002 2.146.973 3.352.97 1.195 2.683 1.195 1.288.002 2.262-.762.97-.773 1.16-2.215h2.426q-.259 2.439-1.91 3.762-1.643 1.326-3.938 1.324m17.713-13.043v2.168h-4.09V.001h-2.437v-10.594h-4.09v-2.168zM122.86.001v-12.762h2.414V.001Zm11.787.281q-2.883.002-4.63-1.816-1.746-1.827-1.745-4.84-.001-3.011 1.746-4.84 1.745-1.828 4.629-1.828 2.868 0 4.617 1.828 1.745 1.829 1.746 4.84 0 3.013-1.746 4.84-1.748 1.818-4.617 1.816m-2.813-3.34q1.054 1.221 2.813 1.22 1.755.001 2.8-1.22 1.055-1.216 1.055-3.316 0-2.095-1.055-3.316-1.044-1.219-2.8-1.22-1.758.001-2.813 1.22-1.044 1.22-1.043 3.316-.001 2.1 1.043 3.316m20.613-9.703h2.332V.001h-2.695l-3.539-5.684q-1.573-2.447-2.285-3.832.07 2.265.07 6.188V0h-2.32v-12.762h2.683l3.563 5.684q1.557 2.531 2.262 3.832-.07-3.011-.07-6.176zM169.251.282q-2.755 0-4.465-1.793c-1.142-1.2-1.71-2.824-1.71-4.863q0-3.069 1.687-4.863 1.696-1.803 4.488-1.805 2.225.001 3.809 1.207 1.592 1.196 1.98 3.469h-2.45q-.33-1.289-1.218-1.922-.88-.644-2.121-.645-1.7.001-2.684 1.22-.974 1.207-.972 3.339-.001 2.146.972 3.352.97 1.195 2.684 1.195 1.286.002 2.262-.762.97-.773 1.16-2.215h2.426q-.259 2.439-1.91 3.762Q171.545.284 169.25.282m14.625 0q-2.884.002-4.629-1.816-1.747-1.827-1.746-4.84-.001-3.011 1.746-4.84 1.745-1.828 4.629-1.828 2.869 0 4.617 1.828 1.745 1.829 1.746 4.84 0 3.013-1.746 4.84-1.748 1.818-4.617 1.816m-2.812-3.34q1.054 1.221 2.812 1.22 1.757.001 2.8-1.22 1.055-1.216 1.055-3.316 0-2.095-1.054-3.316-1.045-1.219-2.801-1.22-1.758.001-2.812 1.22c-.698.814-1.043 1.919-1.043 3.316 0 1.4.345 2.505 1.043 3.316M192.14.001v-2.566h2.636V0Zm0 0" aria-label="CONSTRUCTION CO." style="fill:#231f20;fill-opacity:1;fill-rule:nonzero;stroke:none" transform="translate(249.148 488.8)scale(1.33333)"/></svg>